<svg width="1080" height="1080" viewBox="0 0 1080 1080" xmlns="http://www.w3.org/2000/svg"><rect width="1080" height="1080" fill="#394e00"/><path d="M 0,1080 C 0,1080 0,360 0,360 C 81.60714285714286,369.75 163.21428571428572,379.5 250,359 C 336.7857142857143,338.5 428.75,287.75 511,313 C 593.25,338.25 665.7857142857143,439.5 759,460 C 852.2142857142857,480.5 966.1071428571429,420.25 1080,360 C 1080,360 1080,1080 1080,1080 Z" fill="#000000" opacity="0.19999999999999998"/><path d="M 0,1080 C 0,1080 0,720 0,720 C 116.46428571428572,706.0357142857142 232.92857142857144,692.0714285714286 311,672 C 389.07142857142856,651.9285714285714 428.7499999999999,625.75 508,643 C 587.2500000000001,660.25 706.0714285714287,720.9285714285714 808,741 C 909.9285714285713,761.0714285714286 994.9642857142857,740.5357142857142 1080,720 C 1080,720 1080,1080 1080,1080 Z" fill="#000000" opacity="0.39999999999999997"/></svg>