<svg width="1080" height="1080" viewBox="0 0 1080 1080" xmlns="http://www.w3.org/2000/svg"><rect width="1080" height="1080" fill="#03506f"/><path d="M 0,1080 C 0,1080 0,360 0,360 C 100.60714285714286,318.2857142857143 201.21428571428572,276.57142857142856 282,272 C 362.7857142857143,267.42857142857144 423.75,299.99999999999994 509,299 C 594.25,298.00000000000006 703.7857142857143,263.42857142857144 803,268 C 902.2142857142857,272.57142857142856 991.1071428571429,316.2857142857143 1080,360 C 1080,360 1080,1080 1080,1080 Z" fill="#000000" opacity="0.19999999999999998"/><path d="M 0,1080 C 0,1080 0,720 0,720 C 100.60714285714286,682.5357142857142 201.21428571428572,645.0714285714286 274,680 C 346.7857142857143,714.9285714285714 391.75,822.25 492,836 C 592.25,849.75 747.7857142857143,769.9285714285714 855,735 C 962.2142857142857,700.0714285714286 1021.1071428571429,710.0357142857142 1080,720 C 1080,720 1080,1080 1080,1080 Z" fill="#000000" opacity="0.39999999999999997"/></svg>