<svg width="1080" height="1080" viewBox="0 0 1080 1080" xmlns="http://www.w3.org/2000/svg"><rect width="1080" height="1080" fill="#3e001f"/><path d="M 0,1080 C 0,1080 0,360 0,360 C 101.5,289.6428571428571 203,219.28571428571428 296,248 C 389,276.7142857142857 473.5,404.5 561,463 C 648.5,521.5 739,510.71428571428567 826,482 C 913,453.28571428571433 996.5,406.64285714285717 1080,360 C 1080,360 1080,1080 1080,1080 Z" fill="#000000" opacity="0.19999999999999998"/><path d="M 0,1080 C 0,1080 0,720 0,720 C 91.46428571428572,665.8571428571429 182.92857142857144,611.7142857142857 287,622 C 391.07142857142856,632.2857142857143 507.75,707 583,754 C 658.25,801 692.0714285714287,820.2857142857143 768,810 C 843.9285714285713,799.7142857142857 961.9642857142857,759.8571428571429 1080,720 C 1080,720 1080,1080 1080,1080 Z" fill="#000000" opacity="0.39999999999999997"/></svg>